<svg xmlns="http://www.w3.org/2000/svg" width="25" height="25" viewBox="0 0 25 25">
  <path id="Icon_metro-earth" data-name="Icon metro-earth" d="M15.071,1.928a12.5,12.5,0,1,0,12.5,12.5,12.5,12.5,0,0,0-12.5-12.5Zm0,23.437a10.9,10.9,0,0,1-4.327-.89l5.692-6.4a.781.781,0,0,0,.2-.519V15.209a.781.781,0,0,0-.781-.781c-2.759,0-5.669-2.868-5.7-2.9A.781.781,0,0,0,9.6,11.3H6.477a.781.781,0,0,0-.781.781v4.687a.781.781,0,0,0,.432.7l2.693,1.347V23.4A10.944,10.944,0,0,1,5.186,9.741H8.039a.781.781,0,0,0,.552-.229l3.125-3.125a.781.781,0,0,0,.229-.552V3.944a10.968,10.968,0,0,1,7.917.65c-.1.085-.2.175-.294.269a4.688,4.688,0,0,0,3.311,8q.116,0,.232-.006a18.346,18.346,0,0,1-.205,9.09.779.779,0,0,0-.021.128A10.9,10.9,0,0,1,15.071,25.365Z" transform="translate(-2.571 -1.928)" fill="#fff"/>
</svg>
